<svg id="Calque_1" data-name="Calque 1" xmlns="http://www.w3.org/2000/svg" viewBox="0 0 878.83 255.34"><defs><style>.cls-1{fill:#2a343c;}</style></defs><title>Logo_revon</title><path class="cls-1" d="M191.33,289.22a70,70,0,0,1-19-18.86c-.15-.21-.54-.08-.43.15,5.12,10.76,19.45,45.72-1.14,63.29a3.93,3.93,0,0,0,.69,6.72c2.11,1.07,5,1.05,8.66-2.51a20.35,20.35,0,0,0,4.24-6.22,51.14,51.14,0,0,0,4.51-23.2s-2.35-10.81,2.83-15.29A2.47,2.47,0,0,0,191.33,289.22Z" transform="translate(-165.45 -121.62)"/><path class="cls-1" d="M233.43,261.89s-3.4-7.78-17.16-5.78a9.71,9.71,0,0,0,0,5.78c.5,1.5-2.64,2.64-5.91,3.42a16,16,0,0,0-11.94,19.55c.08.32.17.64.27,1,5.41,19-2.48,27.54,5,24.53,4.28-1.71,5.58-6.4,5.93-9.87a20.16,20.16,0,0,0-.31-5.9c-1-5.26-3.47-19.5,3.56-19.13C226.56,276.16,235,267.48,233.43,261.89Z" transform="translate(-165.45 -121.62)"/><path class="cls-1" d="M192.48,277.4c-55.95-52.15,9.67-101.24,25.68-104.53,16.46-3.39,30.37-11.57,30.37-28.38a30.2,30.2,0,0,0-.69-6.35,1.19,1.19,0,0,0-1.88-.67A30.32,30.32,0,0,1,228.47,143a26.2,26.2,0,0,1-13.07-3.28c-.36-.17-.73-.34-1.11-.5l-1.48-.6h0c-9.41-.29-11.25-8.82-13.12-16.09a1.19,1.19,0,0,0-1.93-.61,30,30,0,0,0-9.41,28.63l-.13.18C171.43,172,144.71,245.42,192.48,277.4Zm14.39-127.12a5.41,5.41,0,1,1,5.4,5.41A5.41,5.41,0,0,1,206.87,150.28Z" transform="translate(-165.45 -121.62)"/><path class="cls-1" d="M212.75,183a1.19,1.19,0,0,1,2,.9c-.54,41.32,86.51,73.73,92.32,76.19a60.53,60.53,0,0,1-4.45,113.13c-8.71,3.31-40.48,11.57-93.2-16.61a1.06,1.06,0,0,1,.74-2c8.23,1.92,21.26,4.49,30.8,4.3a60.93,60.93,0,0,1-9.85-12.61,1,1,0,0,1,.94-1.47q2.32.18,4.68.18a60.28,60.28,0,0,0,28.86-7.31,22.83,22.83,0,0,0,11.91-22.28c-.84-10-15.48-11.82-18.06-2.1-.82,3.07-.35,6.67,2.37,10.85,1.06,1.64-5.58,4.11-23.31,13.64a10.52,10.52,0,0,1-10.05.12c-11.2-6.28,22.61-13.45,18.23-18.14h0c-7.12-1.49-17.06-5.7-18.87-16.9a17.58,17.58,0,0,1,8.88-18,11.69,11.69,0,0,0,6.07-11.19,21.72,21.72,0,0,0-4.32-10.08,1.17,1.17,0,0,0-2,.31c-3.7,9.45-18.76,11.26-20.26,11.42a112.19,112.19,0,0,1-11.3-8.16c-14.31-12.18-9.94-28.83-5.67-38.25a1.47,1.47,0,0,0-2.43-1.59,39,39,0,0,0-8,14,1.46,1.46,0,0,1-2.78,0C179.64,220.26,193.64,199.62,212.75,183Z" transform="translate(-165.45 -121.62)"/><path class="cls-1" d="M438.47,306.14H420.72V201.71h32.67a47.58,47.58,0,0,1,14.47,2.09A32.08,32.08,0,0,1,479.2,210a28,28,0,0,1,7.39,10,33.06,33.06,0,0,1,2.61,13.51q0,11.63-6.57,19.24a34.34,34.34,0,0,1-17,10.59l30.73,42.82h-21l-28.79-41.33h-8.06Zm0-56.39h14.92q7.91,0,12.91-4.26t5-11.85q0-7.62-5-11.72t-12.91-4.1H438.47Z" transform="translate(-165.45 -121.62)"/><path class="cls-1" d="M571.54,289a35.65,35.65,0,0,1-13,13.8q-8.35,5.14-20,5.15a40.57,40.57,0,0,1-15.36-2.84,34.92,34.92,0,0,1-12-7.91,36.41,36.41,0,0,1-7.83-12.08,41,41,0,0,1-2.83-15.51,40.25,40.25,0,0,1,2.83-15.22,37.39,37.39,0,0,1,7.83-12.16A36,36,0,0,1,523,234.16a36.86,36.86,0,0,1,14.69-2.91,36.17,36.17,0,0,1,14.69,2.91,34.73,34.73,0,0,1,11.49,8.05,36.51,36.51,0,0,1,7.53,12.16,42.24,42.24,0,0,1,2.69,15.22q0,2.09-.15,5.22H517.69a18.44,18.44,0,0,0,2.09,7.38A20.15,20.15,0,0,0,524.4,288a21.74,21.74,0,0,0,6.57,3.88,21.5,21.5,0,0,0,7.75,1.42q7.17,0,11.34-3.14a31.19,31.19,0,0,0,7.31-7.9Zm-14.62-26.7a19.5,19.5,0,0,0-2.08-6.72,18.21,18.21,0,0,0-10.15-8.87,20.81,20.81,0,0,0-7.31-1.27,17.65,17.65,0,0,0-7.23,1.49,23,23,0,0,0-6,3.81,19.22,19.22,0,0,0-4.25,5.37,18.44,18.44,0,0,0-2.09,6.19Z" transform="translate(-165.45 -121.62)"/><path class="cls-1" d="M579.9,233h18.35l19.54,50.72L637.48,233h17.9l-30.13,73.1H610Z" transform="translate(-165.45 -121.62)"/><path class="cls-1" d="M699.84,231.25a39.91,39.91,0,0,1,15.51,3,38.49,38.49,0,0,1,12.38,8.13,36.58,36.58,0,0,1,8.13,12.16,40.45,40.45,0,0,1,0,30.13,36.48,36.48,0,0,1-8.13,12.16,38.49,38.49,0,0,1-12.38,8.13,41.75,41.75,0,0,1-31,0,38.6,38.6,0,0,1-12.38-8.13,36.48,36.48,0,0,1-8.13-12.16,40.45,40.45,0,0,1,0-30.13,36.58,36.58,0,0,1,8.13-12.16,38.6,38.6,0,0,1,12.38-8.13A40,40,0,0,1,699.84,231.25Zm0,15.81a20.57,20.57,0,0,0-8.58,1.79,21.8,21.8,0,0,0-11.49,11.94,23.68,23.68,0,0,0,0,17.67,21.91,21.91,0,0,0,11.49,11.86,21.43,21.43,0,0,0,17.15,0,21.91,21.91,0,0,0,11.49-11.86,23.55,23.55,0,0,0,0-17.67,21.8,21.8,0,0,0-11.49-11.94A20.56,20.56,0,0,0,699.84,247.06Z" transform="translate(-165.45 -121.62)"/><path class="cls-1" d="M772.78,306.14h-17.3V233h17.3v9.69a25.61,25.61,0,0,1,9-8.35,26.87,26.87,0,0,1,13.35-3.13q13.43,0,20.89,8.28t7.46,22.6v44H806.2V265.41q0-8.51-4.18-13.35t-12.08-4.85a15.54,15.54,0,0,0-12.46,5.52q-4.69,5.52-4.7,14.92Z" transform="translate(-165.45 -121.62)"/><path class="cls-1" d="M863.63,211.41V233H883v14.62h-19.4v32.82c0,4.08.92,7,2.76,8.87s4.7,2.76,8.58,2.76a18,18,0,0,0,4.25-.52,10.85,10.85,0,0,0,3.81-1.71v15.36a19.83,19.83,0,0,1-5.37,1.94,35.25,35.25,0,0,1-7.76.75q-11,0-17.23-6.42t-6.19-17.9v-36H835.59V233h10.89V211.41Z" transform="translate(-165.45 -121.62)"/><path class="cls-1" d="M947.47,233h17.31v73.1H947.47v-9.7a25.58,25.58,0,0,1-9,8.35,26.59,26.59,0,0,1-13.21,3.14q-13.12,0-20.51-8.28t-7.38-22.6V233h17.3v40.72q0,8.5,4.1,13.36T930.46,292a15.36,15.36,0,0,0,12.39-5.52q4.62-5.51,4.62-14.91Z" transform="translate(-165.45 -121.62)"/><path class="cls-1" d="M1003.56,201.71V306.14h-17.3V201.71Z" transform="translate(-165.45 -121.62)"/><path class="cls-1" d="M1044.29,211.71a10.59,10.59,0,0,1-10.75,10.59A10.71,10.71,0,0,1,1023,211.71a10.38,10.38,0,0,1,3.13-7.61,10.62,10.62,0,0,1,15.15.07A10.61,10.61,0,0,1,1044.29,211.71ZM1025,306.14V233h17.31v73.1Z" transform="translate(-165.45 -121.62)"/></svg>