<svg id="Calque_1" data-name="Calque 1" xmlns="http://www.w3.org/2000/svg" viewBox="0 0 1115.59 330.94"><path d="M737.48,564.46c-.41,1.23-2.46,1.23-3.28,0C703,521.37,631.62,531.63,570.08,549.27c0,0-94.37,32-154.28,6.16-13.13-5.34-21.74-12.31-33.64-30.77,0,0-46.78-75.5-75.5-78.78-16.41,28.72-27.49,57.44-21.33,82.88a2,2,0,0,1-1.64,2.46c-9.44-.82-43.91-12.72-29.14-62,15.6-51.28,93.55-116.52,91.5-167.81a3.07,3.07,0,0,1,3.69-2.87c10.67.82,40.21,5.74,32.83,27.9-7.8,23-33.65,55-57,89.45,22.56-3.7,55.8-15.6,79.18-51.29,34.88-52.93,4.52-80.83,4.52-80.83-13.54-15.18-35.29-19.7-60.32-17.23-51.69,5.33-84.93,52.1-84.93,52.1-25,37.75-21.74,64.83-19.69,74.27a1.94,1.94,0,0,1-2.46,2.46c-55.4-18.46-15.6-88.62-15.6-88.62,48-83.71,141.15-65.24,141.15-65.24s37.33,3.69,60.72,29.95c16,18.05,27.49,43.49,21.34,71.39C436.32,404,383.8,425.77,343.18,432.75c17.64,6.56,38.57,26.26,54.16,77.54,5.74,15.6,14.36,21.34,24.62,25,49.23,18.88,130.88-11.9,130.88-11.9,35.7-12.31,83.29-31.59,136.63-29.13C775.23,498,745.68,552.15,737.48,564.46Z" transform="translate(-212.41 -234.57)" style="fill:#2a343c"/><path d="M567.62,397.05c-9.44,19.29-20.93,34.88-31.6,48-14.36,17.64-29.13,27.49-42.26,32.41-20.1,7-36.11,2.87-36.11,2.87-51.28-13.13-11.89-87-11.89-87,28.31-54.16,73.44-74.68,91.08-67.29,14.77,5.74,12.31,27.49,12.31,27.49s-1.64,48-69.34,52.52a116.82,116.82,0,0,0-10.67,23c-4.1,12.3-4.51,23.79,3.7,27.89,8.2,4.52,18.05,2.88,26.66-.81,15.19-7,27.91-21.34,27.91-21.34,12.72-13.54,25.43-32,29.54-37.75a4.18,4.18,0,0,1,3.28-2.05h6.57A1.23,1.23,0,0,1,567.62,397.05ZM491.3,386.79c8.2.41,17.23-2.05,22.16-4.92C541.36,366.28,536,354,536,354,532.74,346.17,517.15,350.28,491.3,386.79Z" transform="translate(-212.41 -234.57)" style="fill:#2a343c"/><path d="M656.65,368.33c-8.62,32-64.83,93.14-85.34,104.22a6,6,0,0,1-4.52.41c-18.87-5.34-23.38-25-21.33-42.26,2.87-20.93,11.9-41,11.9-41s22.56-49.65,23-63.6c0-1.23.82-1.64,2-1.64,3.7.82,11.49,3.69,17.24,13.13,0,0,10.25,16,.82,36.1,0,0-8.21,17.24-14,32.83,0,0-11.9,31.59-5.75,40.21,42.26-39.8,53.75-100.53,48.42-119.4a1.71,1.71,0,0,1,2.46-2.05C640.65,329.35,663.62,342.48,656.65,368.33Z" transform="translate(-212.41 -234.57)" style="fill:#2a343c"/><path d="M768.25,381.46c-2.88,1.64-6.57,2.05-9.85,2.46,6.56,21.34-11.9,56.21-11.9,56.21-11.08,20.52-23.39,29.54-34,34.06-15.6,7-33.24,3.28-33.24,3.28-54.16-14-22.15-84.11-22.15-84.11,23.79-52.93,60.72-73.45,84.11-66.06,18.05,5.74,13.54,27.08,13.54,27.08a58.89,58.89,0,0,1-3.7,13.54c4.11-1.23,8.21-3.69,11.49-9.44a1.8,1.8,0,0,1,2-.41c2.06,1.64,7,4.93,8.21,10.67C774,374.9,772.35,379.41,768.25,381.46Zm-39-1.23c-6.57-.82-11.9-1.23-13.95,1.23-.41.41-1.23.41-1.23-.41a12.24,12.24,0,0,1,0-9.44c1.64-3.69,6.15-6.56,15.18-5.33a55.91,55.91,0,0,1,7,1.64c1.65,0,2.88.41,4.11.41,9.84-19.28-8.21-32-40.21,20.52,0,0-13.13,20.51-18.06,39.38-3.28,12.31-7,31.19,3.7,34.88,0,0,25.43,9.44,45.13-34.88C742.4,402,736.65,387.2,729.27,380.23Z" transform="translate(-212.41 -234.57)" style="fill:#2a343c"/><path d="M934.83,397.05c-25.44,51.29-61.14,81.65-81.65,80.83-23-.82-27.9-23.39-21.75-43.08a145,145,0,0,1,17.65-36.93c5.33-8.2,8.61-12.72,12.71-18.87,11.08-16.82,3.7-15.59,3.7-15.59-11.08.82-32.42,29.95-47.6,55.8a454.46,454.46,0,0,0-24.62,47.59c-4.1,7.8-9.84,9-15.18,8.62a14.17,14.17,0,0,1-8.2-2.87c-9-7-16-21.34-5.34-50.47,3.7-10.67,8.21-19.28,16.41-32.41,0,0,32.83-49.65,35.7-63.6,0-1.23,1.23-1.64,2.05-1.64,4.11.82,11.49,3.69,16,13.13,0,0,8.21,16-5.33,36.1,0,0-11.49,17.24-20.52,32.83-5.33,9.85-10.66,20.93-14.36,29.54,9.85-16.82,23-38.57,37.34-57.44,0,0,44.72-64.83,71.8-40.62,16,14.36,4.11,37.75-6.56,52.11,0,0-12.72,17.23-23,34.46-7.79,12.72-11.48,24.62-1.64,25.85,14.36,1.64,44.72-43.49,51.29-53.34a4.31,4.31,0,0,1,3.69-2.05h6.16A1.57,1.57,0,0,1,934.83,397.05Z" transform="translate(-212.41 -234.57)" style="fill:#2a343c"/><path d="M908.57,480.75C895.85,473,897.49,457,897.49,457c.82-14.77,8.21-31.18,19.28-49.64,16-26.67,44.32-65.24,44.32-65.24,10.25-14.36,18.87-29.13,26.26-42.26-16-4.92-8.21-19.69-8.21-19.69,1.23,2.87,7.39,4.1,16.41,4.1,11.08-23,16.82-40.21,17.65-46a3.63,3.63,0,0,1,5.33-3.29c32.82,14.77,37.75,28.31,32,43.9,21.75-2.87,42.67-5.33,52.11-3.28,7.8,1.64,10.67,8.21,9,16a39.75,39.75,0,0,1-4.93,11.9c-4.92-8.61-39.79-7.79-66.87-6.15-1.24,2-2.88,4.1-4.11,6.15,0,0-37.75,52.52-56.21,75.5-18,23-34,41.85-41.85,58.26-10.26,22.16,13.13,18.88,13.13,18.88,14.77-.42,53.34-49.24,59.49-59.09A4.91,4.91,0,0,1,1014,395h6.15a1.38,1.38,0,0,1,1.23,2.05c-25.44,51.29-64.83,83.7-89.86,87.4A39.68,39.68,0,0,1,908.57,480.75Z" transform="translate(-212.41 -234.57)" style="fill:#2a343c"/><path d="M1082.13,398.28s32.82-48.82,35.28-62.77a2.32,2.32,0,0,1,2.87-1.64c4.11.41,12.31,2.87,17.65,12.71,0,0,9.43,13.55-4.52,36.52,0,0-11.08,17.64-24.2,36.52-20.93,29.54-4.52,30.77-4.52,30.77,14.77.41,45.14-43.49,51.7-53.34a4.31,4.31,0,0,1,3.69-2.05h6.16a1.57,1.57,0,0,1,1.23,2.05c-25.85,51.29-61.14,81.65-81.65,80.83-19.7-.82-26.26-16.82-24.21-34.05-15.18,17.64-32.82,31.59-49.64,27.9-20.93-4.52-23.39-23-17.65-41,6.57-20.93,19.29-41,19.29-41s32.82-49.65,35.69-63.6c0-1.23,1.23-1.64,2.46-1.64,3.7.82,11.08,3.69,15.59,13.13,0,0,8.21,16-5.33,36.1,0,0-11.49,17.24-20.1,32.83,0,0-23,39-9.44,40.62,9,1.23,26.26-18.05,37.34-32.42C1075.15,408.13,1082.13,398.28,1082.13,398.28Z" transform="translate(-212.41 -234.57)" style="fill:#2a343c"/><path d="M1182.65,456.14c14.77-.42,54.16-49.24,60.72-59.09a4.18,4.18,0,0,1,3.28-2.05h6.57c.82,0,1.23,1.23.82,2.05-25.44,51.29-66.88,83.7-90.68,86.58-9.84,1.23-17.64,0-23.79-4.52C1129.31,471.73,1131,457,1131,457c.82-14.77,7.8-31.18,18.87-49.64,16-26.67,40.62-62,40.62-62,33.65-48.41,49.24-87.8,50.47-98.06.41-2.46,2.87-4.51,5.33-3.28,48.42,24.21,12.72,73.85.82,89.44,0,0-21.33,27.09-38.15,48.83-18.06,22.57-30.37,38.57-38.16,55C1160.9,459.42,1182.65,456.14,1182.65,456.14Z" transform="translate(-212.41 -234.57)" style="fill:#2a343c"/><path d="M1265.12,450.39c14.77.41,45.13-43.49,51.69-53.34a4.2,4.2,0,0,1,3.29-2.05h6.56a1.57,1.57,0,0,1,1.23,2.05c-25.85,51.29-61.13,81.65-81.65,80.83-23.39-.82-28.31-23.39-22.16-43.08a146.81,146.81,0,0,1,18.06-36.52s32.82-48.82,35.69-62.77a2.34,2.34,0,0,1,2.88-1.64c4.1.41,12.31,2.87,17.64,12.71,0,0,9,13.55-4.51,36.52,0,0-11.08,17.64-24.62,36.52C1248.7,449.16,1265.12,450.39,1265.12,450.39ZM1293,312.94s4.92-10.67,16-8.62c11.08,1.64,13.54,15.59,6.15,23.39-7,8.21-16.41,9-20.92,5.33C1294.25,333,1286.45,326.89,1293,312.94Z" transform="translate(-212.41 -234.57)" style="fill:#2a343c"/></svg>