<?xml version="1.0" encoding="utf-8"?>
<!-- Generator: Adobe Illustrator 24.1.0, SVG Export Plug-In . SVG Version: 6.00 Build 0)  -->
<svg version="1.1" id="Calque_1" xmlns="http://www.w3.org/2000/svg" xmlns:xlink="http://www.w3.org/1999/xlink" x="0px" y="0px"
	 viewBox="0 0 878.8 255.3" style="enable-background:new 0 0 878.8 255.3;" xml:space="preserve">
<style type="text/css">
	.st0{fill:#FFFFFF;}
</style>
<path class="st0" d="M25.9,167.6c-7.5-5-13.9-11.4-19-18.9c-0.1-0.2-0.5-0.1-0.4,0.1c5.1,10.8,19.4,45.7-1.1,63.3
	c-1.7,1.3-2.1,3.8-0.8,5.5c0.4,0.5,0.9,0.9,1.5,1.2c2.1,1.1,5,1,8.7-2.5c1.8-1.8,3.2-3.9,4.2-6.2c3.3-7.3,4.8-15.2,4.5-23.2
	c0,0-2.4-10.8,2.8-15.3c1.1-0.9,1.2-2.4,0.4-3.5C26.4,168,26.2,167.8,25.9,167.6z"/>
<path class="st0" d="M68,140.3c0,0-3.4-7.8-17.2-5.8c-0.6,1.9-0.6,3.9,0,5.8c0.5,1.5-2.6,2.6-5.9,3.4c-8.6,2-14,10.5-12,19.2
	c0,0.1,0.1,0.3,0.1,0.4c0.1,0.3,0.2,0.6,0.3,1c5.4,19-2.5,27.5,5,24.5c4.3-1.7,5.6-6.4,5.9-9.9c0.2-2,0.1-4-0.3-5.9
	c-1-5.3-3.5-19.5,3.6-19.1C61.1,154.5,69.6,145.9,68,140.3z"/>
<path class="st0" d="M27,155.8c-55.9-52.2,9.7-101.2,25.7-104.5c16.5-3.4,30.4-11.6,30.4-28.4c0-2.1-0.2-4.3-0.7-6.4
	c-0.2-0.6-0.8-1-1.4-0.9c-0.2,0-0.3,0.1-0.4,0.2c-5.1,3.6-11.2,5.5-17.5,5.5c-4.6,0.1-9.1-1.1-13.1-3.3c-0.4-0.2-0.7-0.3-1.1-0.5
	L47.4,17l0,0c-9.4-0.3-11.2-8.8-13.1-16.1c-0.2-0.6-0.8-1-1.4-0.9c-0.2,0-0.3,0.1-0.5,0.3c-8.1,7.2-11.6,18.1-9.4,28.6l-0.1,0.2
	C6,50.4-20.7,123.8,27,155.8z M41.4,28.7c0-3,2.4-5.4,5.4-5.4c3,0,5.4,2.4,5.4,5.4c0,3-2.4,5.4-5.4,5.4c0,0,0,0,0,0
	C43.8,34.1,41.4,31.6,41.4,28.7z"/>
<path class="st0" d="M47.3,61.4c0.5-0.4,1.2-0.4,1.7,0.1c0.2,0.2,0.3,0.5,0.3,0.8c-0.5,41.3,86.5,73.7,92.3,76.2
	c30.8,13.1,45.1,48.6,32.1,79.4c-6.8,16-20.1,28.3-36.5,33.8c-8.7,3.3-40.5,11.6-93.2-16.6c-0.6-0.2-0.8-0.8-0.6-1.4
	c0.2-0.6,0.8-0.8,1.4-0.6c8.2,1.9,21.3,4.5,30.8,4.3c-3.8-3.8-7.1-8-9.9-12.6c-0.3-0.5-0.1-1.1,0.4-1.4c0.2-0.1,0.3-0.1,0.5-0.1
	c1.5,0.1,3.1,0.2,4.7,0.2c10.1,0,20-2.5,28.9-7.3c8.1-4.4,12.8-13.1,11.9-22.3c-0.8-10-15.5-11.8-18.1-2.1
	c-0.8,3.1-0.4,6.7,2.4,10.9c1.1,1.6-5.6,4.1-23.3,13.6c-3.1,1.7-6.9,1.8-10.1,0.1c-11.2-6.3,22.6-13.5,18.2-18.1l0,0
	c-7.1-1.5-17.1-5.7-18.9-16.9c-1.1-7.3,2.4-14.4,8.9-18c4.1-2.2,6.4-6.6,6.1-11.2c-0.6-3.7-2-7.1-4.3-10.1c-0.4-0.5-1.1-0.6-1.6-0.2
	c-0.2,0.1-0.3,0.3-0.4,0.5c-3.7,9.5-18.8,11.3-20.3,11.4c-3.9-2.5-7.7-5.2-11.3-8.2c-14.3-12.2-9.9-28.8-5.7-38.3
	c0.3-0.7,0-1.6-0.7-1.9c-0.6-0.3-1.3-0.1-1.7,0.4c-3.6,4.1-6.3,8.8-8,14c-0.2,0.8-1.1,1.2-1.8,0.9c-0.4-0.1-0.8-0.5-0.9-0.9
	C14.2,98.6,28.2,78,47.3,61.4z"/>
<path class="st0" d="M273,184.5h-17.8V80.1h32.7c4.9-0.1,9.8,0.7,14.5,2.1c4.2,1.3,8,3.4,11.3,6.2c3.2,2.7,5.7,6.2,7.4,10
	c1.8,4.3,2.7,8.9,2.6,13.5c0,7.8-2.2,14.2-6.6,19.2c-4.5,5.1-10.4,8.8-17,10.6l30.7,42.8h-21l-28.8-41.3h-8.1L273,184.5z M273,128.1
	h14.9c5.3,0,9.6-1.4,12.9-4.3c3.3-2.8,5-6.8,5-11.9c0-5.1-1.7-9-5-11.7c-3.3-2.7-7.6-4.1-12.9-4.1H273V128.1z"/>
<path class="st0" d="M406.1,167.4c-3,5.7-7.5,10.5-13,13.8c-5.6,3.4-12.2,5.1-20,5.1c-5.3,0.1-10.5-0.9-15.4-2.8
	c-4.5-1.8-8.6-4.5-12-7.9c-3.4-3.5-6-7.6-7.8-12.1c-1.9-4.9-2.9-10.2-2.8-15.5c-0.1-5.2,0.9-10.4,2.8-15.2c1.8-4.5,4.5-8.7,7.8-12.2
	c3.4-3.5,7.4-6.2,11.8-8.1c4.6-2,9.6-3,14.7-2.9c5-0.1,10,0.9,14.7,2.9c4.3,1.9,8.2,4.6,11.5,8.1c3.3,3.5,5.8,7.6,7.5,12.2
	c1.8,4.9,2.7,10,2.7,15.2c0,1.4,0,3.1-0.2,5.2h-56.2c0.2,2.6,0.9,5.1,2.1,7.4c1.2,2.2,2.7,4.2,4.6,5.8c1.9,1.7,4.2,3,6.6,3.9
	c2.5,0.9,5.1,1.4,7.8,1.4c4.8,0,8.6-1,11.3-3.1c2.9-2.2,5.3-4.9,7.3-7.9L406.1,167.4z M391.5,140.7c-0.3-2.3-1-4.6-2.1-6.7
	c-2.1-4.1-5.8-7.3-10.2-8.9c-2.3-0.9-4.8-1.3-7.3-1.3c-2.5,0-5,0.5-7.2,1.5c-2.2,1-4.2,2.2-6,3.8c-1.7,1.5-3.2,3.3-4.2,5.4
	c-1.1,1.9-1.8,4-2.1,6.2H391.5z"/>
<path class="st0" d="M414.5,111.4h18.3l19.5,50.7l19.7-50.7h17.9l-30.1,73.1h-15.2L414.5,111.4z"/>
<path class="st0" d="M534.4,109.6c5.3,0,10.6,1,15.5,3c4.6,1.9,8.8,4.6,12.4,8.1c3.5,3.5,6.3,7.6,8.1,12.2c3.9,9.7,3.9,20.5,0,30.1
	c-1.9,4.6-4.6,8.7-8.1,12.2c-3.6,3.5-7.8,6.2-12.4,8.1c-10,4-21,4-31,0c-4.6-1.9-8.8-4.6-12.4-8.1c-3.5-3.5-6.3-7.6-8.1-12.2
	c-3.9-9.7-3.9-20.5,0-30.1c1.9-4.6,4.6-8.7,8.1-12.2c3.6-3.5,7.8-6.2,12.4-8.1C523.8,110.6,529.1,109.6,534.4,109.6z M534.4,125.4
	c-3,0-5.9,0.6-8.6,1.8c-5.3,2.3-9.4,6.6-11.5,11.9c-2.3,5.7-2.3,12,0,17.7c2.1,5.3,6.3,9.6,11.5,11.9c5.5,2.4,11.7,2.4,17.2,0
	c5.2-2.3,9.4-6.6,11.5-11.9c2.3-5.7,2.3-12,0-17.7c-2.1-5.3-6.2-9.6-11.5-11.9C540.3,126,537.3,125.4,534.4,125.4z"/>
<path class="st0" d="M607.3,184.5H590v-73.1h17.3v9.7c2.3-3.5,5.4-6.3,9-8.4c4.1-2.2,8.7-3.3,13.3-3.1c9,0,15.9,2.8,20.9,8.3
	s7.5,13.1,7.5,22.6v44h-17.3v-40.7c0-5.7-1.4-10.1-4.2-13.4c-2.8-3.2-6.8-4.8-12.1-4.9c-4.8-0.2-9.4,1.9-12.5,5.5
	c-3.1,3.7-4.7,8.7-4.7,14.9L607.3,184.5z"/>
<path class="st0" d="M698.2,89.8v21.6h19.4V126h-19.4v32.8c0,4.1,0.9,7,2.8,8.9s4.7,2.8,8.6,2.8c1.4,0,2.9-0.2,4.2-0.5
	c1.4-0.3,2.7-0.9,3.8-1.7v15.4c-1.7,0.9-3.5,1.6-5.4,1.9c-2.6,0.5-5.2,0.8-7.8,0.8c-7.3,0-13.1-2.1-17.2-6.4
	c-4.2-4.3-6.2-10.2-6.2-17.9v-36h-10.9v-14.6H681V89.8H698.2z"/>
<path class="st0" d="M782,111.4h17.3v73.1H782v-9.7c-2.3,3.5-5.4,6.3-9,8.4c-4.1,2.2-8.6,3.3-13.2,3.1c-8.7,0-15.6-2.8-20.5-8.3
	c-4.9-5.5-7.4-13.1-7.4-22.6v-44h17.3v40.7c0,5.7,1.4,10.1,4.1,13.4c2.7,3.2,6.6,4.9,11.7,4.9c4.8,0.2,9.3-1.9,12.4-5.5
	c3.1-3.7,4.6-8.6,4.6-14.9L782,111.4z"/>
<path class="st0" d="M838.1,80.1v104.4h-17.3V80.1H838.1z"/>
<path class="st0" d="M878.8,90.1c0,5.8-4.7,10.6-10.6,10.6c-0.1,0-0.1,0-0.2,0c-5.8-0.1-10.5-4.8-10.5-10.6c0-2.9,1.1-5.6,3.1-7.6
	c4.1-4.2,10.9-4.2,15-0.1c0,0,0.1,0.1,0.1,0.1C877.8,84.6,878.9,87.3,878.8,90.1z M859.5,184.5v-73.1h17.3v73.1L859.5,184.5z"/>
</svg>
